<mxfile host="Electron" modified="2023-09-24T05:20:18.637Z" agent="Mozilla/5.0 (Macintosh; Intel Mac OS X 10_15_7) AppleWebKit/537.36 (KHTML, like Gecko) draw.io/21.7.5 Chrome/114.0.5735.289 Electron/25.8.1 Safari/537.36" etag="9HMt2_KeW_LX4FQfb3vr" version="21.7.5" type="device">
  <diagram name="Page-1" id="QEMziA7J9_ZLN5iprL5_">
    <mxGraphModel dx="795" dy="579" grid="1" gridSize="10" guides="1" tooltips="1" connect="1" arrows="1" fold="1" page="1" pageScale="1" pageWidth="1100" pageHeight="1700" math="0" shadow="0">
      <root>
        <mxCell id="0" />
        <mxCell id="1" parent="0" />
        <mxCell id="S1w4HnZc4nYC-Lq5MAfm-4" value="" style="edgeStyle=orthogonalEdgeStyle;rounded=0;orthogonalLoop=1;jettySize=auto;html=1;fillColor=#dae8fc;strokeColor=#000000;" parent="1" source="S1w4HnZc4nYC-Lq5MAfm-1" target="S1w4HnZc4nYC-Lq5MAfm-3" edge="1">
          <mxGeometry relative="1" as="geometry" />
        </mxCell>
        <mxCell id="S1w4HnZc4nYC-Lq5MAfm-1" value="Rescue Agencies/volunteers" style="rounded=0;whiteSpace=wrap;html=1;fillColor=#d5e8d4;fontFamily=Inter;fontSize=15;strokeColor=#82b366;glass=0;" parent="1" vertex="1">
          <mxGeometry x="278" y="65" width="180" height="60" as="geometry" />
        </mxCell>
        <mxCell id="NrMM7a0JjBSLYMNGde3V-3" style="edgeStyle=orthogonalEdgeStyle;rounded=0;orthogonalLoop=1;jettySize=auto;html=1;" parent="1" source="S1w4HnZc4nYC-Lq5MAfm-2" target="S1w4HnZc4nYC-Lq5MAfm-5" edge="1">
          <mxGeometry relative="1" as="geometry" />
        </mxCell>
        <mxCell id="NrMM7a0JjBSLYMNGde3V-54" value="" style="edgeStyle=orthogonalEdgeStyle;rounded=0;orthogonalLoop=1;jettySize=auto;html=1;" parent="1" source="S1w4HnZc4nYC-Lq5MAfm-2" target="cyzwXhJkcbCTKTCkvBIi-1" edge="1">
          <mxGeometry relative="1" as="geometry" />
        </mxCell>
        <mxCell id="S1w4HnZc4nYC-Lq5MAfm-2" value="Affected Users" style="rounded=0;whiteSpace=wrap;html=1;fillColor=#fff2cc;fontFamily=Inter;fontSize=15;strokeColor=#d6b656;glass=0;" parent="1" vertex="1">
          <mxGeometry x="328" y="190" width="120" height="60" as="geometry" />
        </mxCell>
        <mxCell id="NrMM7a0JjBSLYMNGde3V-32" value="" style="edgeStyle=orthogonalEdgeStyle;rounded=0;orthogonalLoop=1;jettySize=auto;html=1;" parent="1" source="S1w4HnZc4nYC-Lq5MAfm-3" target="NrMM7a0JjBSLYMNGde3V-30" edge="1">
          <mxGeometry relative="1" as="geometry" />
        </mxCell>
        <mxCell id="S1w4HnZc4nYC-Lq5MAfm-3" value="Agency Registration/volunteer capabilities (contact details and area of expertise)" style="rounded=0;whiteSpace=wrap;html=1;fillColor=#d5e8d4;fontFamily=Inter;fontSize=15;strokeColor=#82b366;glass=0;" parent="1" vertex="1">
          <mxGeometry x="38" y="40" width="180" height="110" as="geometry" />
        </mxCell>
        <mxCell id="NrMM7a0JjBSLYMNGde3V-2" style="rounded=0;orthogonalLoop=1;jettySize=auto;html=1;" parent="1" source="S1w4HnZc4nYC-Lq5MAfm-5" target="S1w4HnZc4nYC-Lq5MAfm-11" edge="1">
          <mxGeometry relative="1" as="geometry" />
        </mxCell>
        <mxCell id="NrMM7a0JjBSLYMNGde3V-37" value="" style="rounded=0;orthogonalLoop=1;jettySize=auto;html=1;" parent="1" source="S1w4HnZc4nYC-Lq5MAfm-5" target="S1w4HnZc4nYC-Lq5MAfm-14" edge="1">
          <mxGeometry relative="1" as="geometry" />
        </mxCell>
        <mxCell id="S1w4HnZc4nYC-Lq5MAfm-5" value="Register/Login" style="rounded=0;whiteSpace=wrap;html=1;fillColor=#fff2cc;fontFamily=Inter;fontSize=15;strokeColor=#d6b656;glass=0;" parent="1" vertex="1">
          <mxGeometry x="328" y="280" width="120" height="60" as="geometry" />
        </mxCell>
        <mxCell id="NrMM7a0JjBSLYMNGde3V-1" style="rounded=0;orthogonalLoop=1;jettySize=auto;html=1;" parent="1" source="S1w4HnZc4nYC-Lq5MAfm-7" target="S1w4HnZc4nYC-Lq5MAfm-11" edge="1">
          <mxGeometry relative="1" as="geometry" />
        </mxCell>
        <mxCell id="S1w4HnZc4nYC-Lq5MAfm-7" value="Collaboration with other agencies" style="rounded=0;whiteSpace=wrap;html=1;fillColor=#d5e8d4;fontFamily=Inter;fontSize=15;strokeColor=#82b366;glass=0;" parent="1" vertex="1">
          <mxGeometry x="38" y="320" width="180" height="60" as="geometry" />
        </mxCell>
        <mxCell id="S1w4HnZc4nYC-Lq5MAfm-11" value="Database (agency data, user data disaster data)" style="rounded=0;whiteSpace=wrap;html=1;fillColor=#e1d5e7;fontFamily=Inter;fontSize=15;strokeColor=#9673a6;glass=0;" parent="1" vertex="1">
          <mxGeometry x="288" y="440" width="200" height="80" as="geometry" />
        </mxCell>
        <mxCell id="S1w4HnZc4nYC-Lq5MAfm-22" value="" style="edgeStyle=orthogonalEdgeStyle;rounded=0;orthogonalLoop=1;jettySize=auto;html=1;" parent="1" source="S1w4HnZc4nYC-Lq5MAfm-14" target="S1w4HnZc4nYC-Lq5MAfm-11" edge="1">
          <mxGeometry relative="1" as="geometry" />
        </mxCell>
        <mxCell id="NrMM7a0JjBSLYMNGde3V-47" style="edgeStyle=orthogonalEdgeStyle;rounded=0;orthogonalLoop=1;jettySize=auto;html=1;" parent="1" target="S1w4HnZc4nYC-Lq5MAfm-18" edge="1">
          <mxGeometry relative="1" as="geometry">
            <mxPoint x="733" y="530" as="sourcePoint" />
            <Array as="points">
              <mxPoint x="733" y="550" />
              <mxPoint x="498" y="550" />
            </Array>
          </mxGeometry>
        </mxCell>
        <mxCell id="NrMM7a0JjBSLYMNGde3V-48" style="edgeStyle=orthogonalEdgeStyle;rounded=0;orthogonalLoop=1;jettySize=auto;html=1;" parent="1" source="S1w4HnZc4nYC-Lq5MAfm-14" target="S1w4HnZc4nYC-Lq5MAfm-16" edge="1">
          <mxGeometry relative="1" as="geometry">
            <mxPoint x="733" y="530" as="sourcePoint" />
            <Array as="points">
              <mxPoint x="733" y="550" />
              <mxPoint x="338" y="550" />
            </Array>
          </mxGeometry>
        </mxCell>
        <mxCell id="NrMM7a0JjBSLYMNGde3V-49" style="edgeStyle=orthogonalEdgeStyle;rounded=0;orthogonalLoop=1;jettySize=auto;html=1;" parent="1" source="S1w4HnZc4nYC-Lq5MAfm-14" target="S1w4HnZc4nYC-Lq5MAfm-26" edge="1">
          <mxGeometry relative="1" as="geometry" />
        </mxCell>
        <mxCell id="NrMM7a0JjBSLYMNGde3V-50" style="edgeStyle=orthogonalEdgeStyle;rounded=0;orthogonalLoop=1;jettySize=auto;html=1;" parent="1" source="S1w4HnZc4nYC-Lq5MAfm-14" target="cyzwXhJkcbCTKTCkvBIi-11" edge="1">
          <mxGeometry relative="1" as="geometry">
            <Array as="points">
              <mxPoint x="733" y="550" />
              <mxPoint x="977" y="550" />
            </Array>
          </mxGeometry>
        </mxCell>
        <mxCell id="NrMM7a0JjBSLYMNGde3V-52" style="edgeStyle=orthogonalEdgeStyle;rounded=0;orthogonalLoop=1;jettySize=auto;html=1;" parent="1" source="S1w4HnZc4nYC-Lq5MAfm-14" target="S1w4HnZc4nYC-Lq5MAfm-25" edge="1">
          <mxGeometry relative="1" as="geometry" />
        </mxCell>
        <mxCell id="NrMM7a0JjBSLYMNGde3V-53" value="" style="edgeStyle=orthogonalEdgeStyle;rounded=0;orthogonalLoop=1;jettySize=auto;html=1;" parent="1" source="S1w4HnZc4nYC-Lq5MAfm-14" target="NrMM7a0JjBSLYMNGde3V-33" edge="1">
          <mxGeometry relative="1" as="geometry" />
        </mxCell>
        <mxCell id="S1w4HnZc4nYC-Lq5MAfm-14" value="Dashboard" style="rounded=0;whiteSpace=wrap;html=1;fillColor=#dae8fc;fontFamily=Inter;fontSize=15;strokeColor=#6c8ebf;glass=0;" parent="1" vertex="1">
          <mxGeometry x="673" y="450" width="120" height="60" as="geometry" />
        </mxCell>
        <mxCell id="S1w4HnZc4nYC-Lq5MAfm-16" value="Map Interface" style="rounded=0;whiteSpace=wrap;html=1;fillColor=#dae8fc;fontFamily=Inter;fontSize=15;strokeColor=#6c8ebf;glass=0;" parent="1" vertex="1">
          <mxGeometry x="278" y="590" width="120" height="60" as="geometry" />
        </mxCell>
        <mxCell id="S1w4HnZc4nYC-Lq5MAfm-18" value="Filter rescue agencies" style="rounded=0;whiteSpace=wrap;html=1;fillColor=#dae8fc;fontFamily=Inter;fontSize=15;strokeColor=#6c8ebf;glass=0;" parent="1" vertex="1">
          <mxGeometry x="438" y="590" width="120" height="60" as="geometry" />
        </mxCell>
        <mxCell id="S1w4HnZc4nYC-Lq5MAfm-25" value="SOS, Phone shake" style="rounded=0;whiteSpace=wrap;html=1;fillColor=#dae8fc;fontFamily=Inter;fontSize=15;strokeColor=#6c8ebf;glass=0;" parent="1" vertex="1">
          <mxGeometry x="598" y="590" width="120" height="60" as="geometry" />
        </mxCell>
        <mxCell id="S1w4HnZc4nYC-Lq5MAfm-26" value="Community Forums" style="rounded=0;whiteSpace=wrap;html=1;fillColor=#dae8fc;fontFamily=Inter;fontSize=15;strokeColor=#6c8ebf;glass=0;" parent="1" vertex="1">
          <mxGeometry x="758" y="590" width="120" height="60" as="geometry" />
        </mxCell>
        <mxCell id="S1w4HnZc4nYC-Lq5MAfm-27" value="Multi language and accessibility features" style="rounded=0;whiteSpace=wrap;html=1;fillColor=#ffe6cc;fontFamily=Inter;fontSize=15;strokeColor=#d79b00;glass=0;" parent="1" vertex="1">
          <mxGeometry x="921.75" y="40" width="140" height="70" as="geometry" />
        </mxCell>
        <mxCell id="NrMM7a0JjBSLYMNGde3V-42" style="rounded=0;orthogonalLoop=1;jettySize=auto;html=1;" parent="1" source="cyzwXhJkcbCTKTCkvBIi-1" target="S1w4HnZc4nYC-Lq5MAfm-11" edge="1">
          <mxGeometry relative="1" as="geometry" />
        </mxCell>
        <mxCell id="NrMM7a0JjBSLYMNGde3V-58" style="edgeStyle=orthogonalEdgeStyle;rounded=0;orthogonalLoop=1;jettySize=auto;html=1;" parent="1" source="cyzwXhJkcbCTKTCkvBIi-1" target="cyzwXhJkcbCTKTCkvBIi-4" edge="1">
          <mxGeometry relative="1" as="geometry" />
        </mxCell>
        <mxCell id="NrMM7a0JjBSLYMNGde3V-60" style="edgeStyle=orthogonalEdgeStyle;rounded=0;orthogonalLoop=1;jettySize=auto;html=1;" parent="1" source="cyzwXhJkcbCTKTCkvBIi-1" target="cyzwXhJkcbCTKTCkvBIi-8" edge="1">
          <mxGeometry relative="1" as="geometry">
            <Array as="points">
              <mxPoint x="788" y="160" />
              <mxPoint x="589" y="160" />
            </Array>
          </mxGeometry>
        </mxCell>
        <mxCell id="NrMM7a0JjBSLYMNGde3V-61" style="edgeStyle=orthogonalEdgeStyle;rounded=0;orthogonalLoop=1;jettySize=auto;html=1;" parent="1" source="cyzwXhJkcbCTKTCkvBIi-1" target="S1w4HnZc4nYC-Lq5MAfm-27" edge="1">
          <mxGeometry relative="1" as="geometry">
            <Array as="points">
              <mxPoint x="788" y="160" />
              <mxPoint x="998" y="160" />
            </Array>
          </mxGeometry>
        </mxCell>
        <mxCell id="cyzwXhJkcbCTKTCkvBIi-1" value="AI Chatbot" style="rounded=0;whiteSpace=wrap;html=1;fillColor=#ffe6cc;fontFamily=Inter;fontSize=15;strokeColor=#d79b00;glass=0;" parent="1" vertex="1">
          <mxGeometry x="728" y="190" width="120" height="60" as="geometry" />
        </mxCell>
        <mxCell id="cyzwXhJkcbCTKTCkvBIi-4" value="&lt;span style=&quot;color: rgb(0, 0, 0); font-size: 15px; font-style: normal; font-variant-ligatures: normal; font-variant-caps: normal; font-weight: 400; letter-spacing: normal; orphans: 2; text-align: center; text-indent: 0px; text-transform: none; widows: 2; word-spacing: 0px; -webkit-text-stroke-width: 0px; text-decoration-thickness: initial; text-decoration-style: initial; text-decoration-color: initial; float: none; display: inline !important;&quot;&gt;Offline assistance&lt;/span&gt;" style="rounded=0;whiteSpace=wrap;html=1;fillColor=#ffe6cc;fontFamily=Inter;fontSize=15;strokeColor=#d79b00;glass=0;" parent="1" vertex="1">
          <mxGeometry x="699.25" y="40" width="177.5" height="70" as="geometry" />
        </mxCell>
        <mxCell id="cyzwXhJkcbCTKTCkvBIi-8" value="Predictive and Sentiment Analysis" style="rounded=0;whiteSpace=wrap;html=1;fillColor=#ffe6cc;fontFamily=Inter;fontSize=15;strokeColor=#d79b00;glass=0;" parent="1" vertex="1">
          <mxGeometry x="529.25" y="40" width="120" height="70" as="geometry" />
        </mxCell>
        <mxCell id="cyzwXhJkcbCTKTCkvBIi-11" value="Feedback system" style="rounded=0;whiteSpace=wrap;html=1;fillColor=#dae8fc;fontFamily=Inter;fontSize=15;strokeColor=#6c8ebf;glass=0;" parent="1" vertex="1">
          <mxGeometry x="916.75" y="590" width="120" height="60" as="geometry" />
        </mxCell>
        <mxCell id="NrMM7a0JjBSLYMNGde3V-26" style="rounded=0;orthogonalLoop=1;jettySize=auto;html=1;" parent="1" source="NrMM7a0JjBSLYMNGde3V-25" target="S1w4HnZc4nYC-Lq5MAfm-11" edge="1">
          <mxGeometry relative="1" as="geometry" />
        </mxCell>
        <mxCell id="NrMM7a0JjBSLYMNGde3V-25" value="Local People (crowd sourcing)" style="rounded=0;whiteSpace=wrap;html=1;fillColor=#f8cecc;fontFamily=Inter;fontSize=15;strokeColor=#b85450;glass=0;" parent="1" vertex="1">
          <mxGeometry x="38" y="570" width="160" height="80" as="geometry" />
        </mxCell>
        <mxCell id="NrMM7a0JjBSLYMNGde3V-64" value="" style="edgeStyle=orthogonalEdgeStyle;rounded=0;orthogonalLoop=1;jettySize=auto;html=1;" parent="1" source="NrMM7a0JjBSLYMNGde3V-30" target="NrMM7a0JjBSLYMNGde3V-63" edge="1">
          <mxGeometry relative="1" as="geometry" />
        </mxCell>
        <mxCell id="NrMM7a0JjBSLYMNGde3V-30" value="Verification" style="rounded=0;whiteSpace=wrap;html=1;fillColor=#d5e8d4;fontFamily=Inter;fontSize=15;strokeColor=#82b366;glass=0;" parent="1" vertex="1">
          <mxGeometry x="38" y="190" width="180" height="30" as="geometry" />
        </mxCell>
        <mxCell id="NrMM7a0JjBSLYMNGde3V-33" value="Contact agencies or volunteers for help" style="rounded=0;whiteSpace=wrap;html=1;fillColor=#dae8fc;fontFamily=Inter;fontSize=15;strokeColor=#6c8ebf;glass=0;" parent="1" vertex="1">
          <mxGeometry x="891.75" y="450" width="170" height="60" as="geometry" />
        </mxCell>
        <mxCell id="NrMM7a0JjBSLYMNGde3V-65" value="" style="edgeStyle=orthogonalEdgeStyle;rounded=0;orthogonalLoop=1;jettySize=auto;html=1;" parent="1" source="NrMM7a0JjBSLYMNGde3V-63" target="S1w4HnZc4nYC-Lq5MAfm-7" edge="1">
          <mxGeometry relative="1" as="geometry" />
        </mxCell>
        <mxCell id="NrMM7a0JjBSLYMNGde3V-63" value="Location Tracking" style="rounded=0;whiteSpace=wrap;html=1;fillColor=#d5e8d4;fontFamily=Inter;fontSize=15;strokeColor=#82b366;glass=0;" parent="1" vertex="1">
          <mxGeometry x="38" y="250" width="180" height="30" as="geometry" />
        </mxCell>
      </root>
    </mxGraphModel>
  </diagram>
</mxfile>
